<?xml version="1.0" encoding="utf-8"?>
<!-- Generator: Adobe Illustrator 24.0.1, SVG Export Plug-In . SVG Version: 6.00 Build 0)  -->
<svg version="1.1" id="Ebene_1" xmlns="http://www.w3.org/2000/svg" xmlns:xlink="http://www.w3.org/1999/xlink" x="0px" y="0px"
	 viewBox="0 0 445 279" style="enable-background:new 0 0 445 279;" xml:space="preserve">
<style type="text/css">
	.st0{clip-path:url(#SVGID_2_);fill:#FFFFFF;}
	.st1{clip-path:url(#SVGID_4_);fill:#FFFFFF;}
	.st2{fill:#FFFFFF;}
	.st3{font-family:'Morion-Regular';}
	.st4{font-size:11px;}
	.st5{clip-path:url(#SVGID_6_);fill:#FFFFFF;}
</style>
<g>
	<g>
		<defs>
			<rect id="SVGID_1_" x="15.5" y="60.2" width="407.3" height="175.2"/>
		</defs>
		<clipPath id="SVGID_2_">
			<use xlink:href="#SVGID_1_"  style="overflow:visible;"/>
		</clipPath>
		<path class="st0" d="M422.6,140.1c-0.3-3.9-0.9-7.7-1.8-11.3c-1.8-7.1-4.6-12.9-7.6-17.5c-3-4.7-6.3-8.3-9.5-11.3
			c-6.5-6.1-13.1-10-19.2-13.1c-6.2-3-12-5.1-17.3-6.7c-10.6-3.1-19.3-4.2-25.3-4.4c-6-0.2-9.3,0.4-9.4,1.4c0,1,3.2,2.3,9,4.2
			c5.8,2,14.2,4.6,24.4,8.9c5.1,2.2,10.6,4.7,16.3,8.1c5.7,3.4,11.7,7.5,17.4,13.2c2.8,2.8,5.5,6.1,7.9,9.9
			c2.3,3.8,4.3,8.1,5.4,12.9c0.6,2.4,0.9,4.9,1.1,7.4c0.1,1.3,0.1,2.6,0.1,3.9c0,0.3,0,0.7,0,1v0.5v0.4c0,0.6-0.1,1.1-0.2,1.7
			c-0.6,4.5-2.4,9.1-4.9,13.1c0,0-1.4,2.6-4.9,6.6s-9,9.1-16.6,14.1s-17.1,10-28.2,14.5s-23.7,8.6-37.4,12.1
			c-27.4,7-59.2,11.9-92.3,14s-67.5,1.6-100.1-2.4c-3.7-0.5-7.4-1-11.1-1.5c-8.4-1.2-16.9-2.8-25.4-4.8s-17-4.4-25.3-7.5
			c-8.4-3.1-16.7-6.8-24.7-11.8c-4-2.5-7.9-5.4-11.5-9c-3.6-3.5-7-7.7-9.5-13c-1.4-3-2.4-6.4-2.8-10c-0.2-1.8-0.3-3.6-0.2-5.6
			c0.1-1.9,0.2-3.8,0.5-5.7c0.7-4.9,2-9.6,3.9-13.7c1.8-4.2,4-7.9,6.5-11.2c4.9-6.7,10.5-11.9,16.3-16.4c3.9-3,7.8-5.7,11.8-8.1
			c3.6-2.2,7.2-4.2,10.9-6.1s7.4-3.6,11.3-5.3c4.4-1.9,8.9-3.6,13.4-5.3c4.5-1.6,9-3.1,13.6-4.5c12.7-3.8,25.6-6.9,38.5-9.4
			s25.9-4.5,38.9-6.2c13-1.6,26.1-2.9,39.1-3.8c13.1-0.9,26.2-1.6,39.3-1.8c1-0.2,2.4-0.3,5.1-0.5c-12.7-0.3-25.5,0-38.4,0.6
			s-25.8,1.6-38.7,3c-25.8,2.8-51.6,6.9-77,13.5c-4.5,1.2-9,2.4-13.5,3.8s-8.9,2.8-13.3,4.4c-4.3,1.5-8.3,3.1-12.3,4.8
			c-3.9,1.7-7.8,3.5-11.7,5.4c-4.3,2.2-8.4,4.6-12.6,7.2c-5.1,3.4-10.2,7.2-15,11.8c-4.8,4.7-9.4,10.1-13.2,17.3
			c-1.9,3.6-3.6,7.6-4.8,12c-1.2,4.4-2,9.3-2.1,14.2c0,0.6,0,1.2,0,1.8s0,1.3,0,1.9c0,1.3,0.2,2.6,0.3,3.8c0.3,2.5,0.9,4.9,1.6,7.1
			c1.4,4.4,3.4,8.1,5.5,11.3c3.6,5.4,7.8,9.4,12,12.8c7.4,6,15.1,10.2,22.9,13.8s15.7,6.4,23.6,8.8c15.8,4.8,31.7,8,47.5,10.4
			c3.8,0.6,7.7,1.1,11.6,1.6c32.2,3.9,65.8,4.6,98,2.7c32.1-1.9,62.9-6.4,89.4-13.1c13.3-3.4,25.5-7.3,36.3-11.7s20.2-9.3,27.9-14.3
			c7.7-5,13.5-10.4,17.4-14.8c3.9-4.4,5.7-7.7,5.7-7.6c1.7-2.7,3.2-5.6,4.5-9.1c1.3-3.4,2.4-7.4,2.9-11.6c0.1-1.1,0.2-2.1,0.3-3.2
			v-0.8v-0.7c0-0.5,0-1,0-1.5C422.8,144,422.8,142,422.6,140.1"/>
	</g>
	<g>
		<defs>
			<rect id="SVGID_3_" x="15.5" y="60.2" width="407.3" height="175.2"/>
		</defs>
		<clipPath id="SVGID_4_">
			<use xlink:href="#SVGID_3_"  style="overflow:visible;"/>
		</clipPath>
		<path class="st1" d="M315.7,79c0.5,0,0.9-0.1,1.3-0.1c0.5-0.1,0.9-0.2,1.2-0.3c3.9-1.5,7.8-2,11.6-3.8c0.5-0.4,0.6-0.7,0.5-0.9
			c-4.9-1.8-9.8-3.8-14.7-5.3c-0.5,0-0.9,0.1-1.3,0.1c-0.5,0.1-0.9,0.2-1.2,0.3c-2.4,0.8-4.1,2.6-4.1,4.8
			C309,76.7,311.9,79,315.7,79"/>
	</g>
</g>
<text transform="matrix(1 0 0 1 112.4611 192.3687)" class="st2 st3 st4">DIE GALA DER LITER</text>
<text transform="matrix(1 0 0 1 223.2611 192.3687)" class="st2 st3 st4">A</text>
<text transform="matrix(1 0 0 1 229.7611 192.3687)" class="st2 st3 st4">TURZEITSCHRIFTEN</text>
<g>
	<g>
		<defs>
			<rect id="SVGID_5_" x="14.5" y="58.2" width="407.3" height="175.2"/>
		</defs>
		<clipPath id="SVGID_6_">
			<use xlink:href="#SVGID_5_"  style="overflow:visible;"/>
		</clipPath>
		<path class="st5" d="M348.2,114.8c-6.6,0-11.8,5.1-15.8,15.3l0.9-15.9l-11.2,3.6v1.2c4.2-1.3,6.3-0.2,6.3,3.4V159
			c0,4.4-2,6.1-6.3,6.1v1h18.6v-1c-5.6,0-7.3-1.6-7.3-6.1v-28.9c3.3-8.3,7-12.4,10.9-12.4c3.5,0,4.3,5,6.4,5c1.9,0,2.9-1.2,2.9-3.7
			C353.6,116.6,351.3,114.8,348.2,114.8 M297.3,115.8c4,0,7.3,1.3,10,3.9c2.7,2.5,4.1,5.4,4.1,8.5c0,2.3-1,2.9-4.1,3.7l-26.9,6v-0.3
			c0-6.1,1.6-11.3,4.7-15.6C288.4,117.9,292.4,115.8,297.3,115.8 M300.5,163.7c-5.9,0-10.6-2.3-14.3-6.9c-3.6-4.6-5.5-10.5-5.7-17.9
			l36.6-7.2c-0.5-4.7-2.6-8.7-6.2-11.9c-3.5-3.3-7.8-4.9-12.7-4.9c-6.5,0-11.8,2.5-16,7.5c-4.1,4.9-6.1,11.1-6.1,18.6
			c0,7.4,2.1,13.7,6.2,19c4.2,5.1,9.6,7.7,16.3,7.7c7.6,0,15.2-4.7,18.5-11.9V153C314.1,159.5,307.8,163.7,300.5,163.7 M272,114.2
			c-4.1,1.3-8.5,1.9-13.1,1.9h-4.1v-14.8h-1.3c0,4.5-0.9,8.7-5.2,12.2c-2.1,1.7-4.8,2.6-8.1,2.6v1h9.7v35.5
			c0,9.9,4.6,14.9,11.1,14.9c4.5,0,7.8-3,9.3-5.5v-1.1c-4.8,6.1-15.7,4.1-15.5-8.5v-35.3h16.7L272,114.2z M237.6,114.2
			c-4.1,1.3-8.5,1.9-13.1,1.9h-4.1v-14.8h-1.3c0,4.5-0.9,8.7-5.2,12.2c-2.1,1.7-4.8,2.6-8.1,2.6v1h9.7v35.5
			c0,9.9,4.6,14.9,11.1,14.9c4.5,0,7.8-3,9.3-5.5v-1.1c-4.8,6.1-15.8,4.1-15.6-8.5v-35.3H237L237.6,114.2z M202.2,166.3v-1
			c-4.1,0-6.1-2.3-6.1-6.9v-44l-11.2,3.6v1.2c4.2-1.2,6.3,0.8,6.3,6v33.2c0,4.6-2.1,6.9-6.3,6.9v1H202.2z M193.4,104.3
			c2.1,0,3.9-1.8,3.9-3.8c0-2.1-1.8-3.9-3.9-3.9c-2,0-3.8,1.8-3.8,3.9C189.6,102.5,191.4,104.3,193.4,104.3 M177.8,166.3v-1
			c-4.1,0-6.1-2.3-6.1-6.9V89.8l-11.2,3.6v1.2c4.2-1.3,6.3,0.1,6.3,4v59.7c0,4.6-2.1,6.9-6.3,6.9v1h17.3V166.3z M96.5,131
			c0,12.5,3.4,23.9,11.7,31.2c4.1,3.6,9.1,5.4,14.8,5.4c10.8,0,17.2-6.6,20-6.6c2.9,0,5.1,2.9,5.1,6.6h1.2v-27.5
			c0-4.8,1.7-6.4,6.1-6.4v-1h-18.7v1c5.6,0,7.4,1.4,7.4,7.4v6.5c0,5.3-1.7,9.6-5.2,12.9c-3.5,3.2-7.5,4.8-12,4.8
			c-7.2,0-13.2-3.3-18.2-9.8c-4.9-6.6-7.3-15.8-7.3-27.5c0-10.3,2.1-18.6,6.3-24.9c4.3-6.3,9.6-9.4,16.2-9.4
			c6.1,0,11.2,2.6,15.5,7.9c4.3,5.2,7.2,11.7,8.5,19.5h1.1l-4.1-26c-2.5,2.5-5.4,2.2-7.9,0.9c-2.5-1.5-7.9-3.3-13.4-3.3
			c-7.1,0-13.4,3.8-19,11.3C99.2,111.6,96.5,120.6,96.5,131"/>
	</g>
</g>
</svg>
